# xmcd
#
# Track frame offsets:
#	150
#	12811
#	24756
#	37931
#	49826
#	62931
#	76805
#	90618
#	103028
#	115188
#	127910
#	141087
#	155347
#	167167
#	180918
#	192730
#	206038
#	218789
#	231102
#	244575
#	257915
#	270450
#	283480
#	297210
#	309883
#	322423
#	334029
#	346872
#
# Disc length: 4797 seconds
#
# Revision: 0
# Processed by: cddbd v1.5.1PL0 Copyright (c) Steve Scherf et al.
# Submitted via: dBpowerAMP V4.0
#
DISCID=9112bb1c
DTITLE=Cowboy Copas - Signed, Sealed And Delivered
DYEAR=1900
DGENRE=
TTITLE0=Filipino Baby
TTITLE1=Signed, Sealed And Delivered
TTITLE2=Breeze
TTITLE3=I'm Waltzing with Tears In My Eyes
TTITLE4=The Strange Little Girl
TTITLE5='Tis Sweet To Be Remembered
TTITLE6=Tennessee Waltz
TTITLE7=Tennessee Moon
TTITLE8=Tennessee Flat Top Guitar
TTITLE9=Down In Nashville Tennessee
TTITLE10=Kentucky Waltz
TTITLE11=Feudin' Boogie
TTITLE12=Hangman's Boogie
TTITLE13=Jukebox Blues
TTITLE14=Look What I Got
TTITLE15=I Don't Blame You
TTITLE16=Sweet Thing
TTITLE17=Believe It Or Not
TTITLE18=Steppin' Out
TTITLE19=Oceans Of Love
TTITLE20=Feelin' Low
TTITLE21=There Ain't Nobody Gonna Miss Me
TTITLE22=It's A Lonely World When You're All Alone
TTITLE23=No More Roamin'
TTITLE24=Crazy Over You
TTITLE25=I Can't Stop Lovin' You
TTITLE26=Tragic Romance
TTITLE27=Don't Let Them Change Your Mind
EXTD=Bob Dunham
EXTT0=
EXTT1=
EXTT2=
EXTT3=
EXTT4=
EXTT5=
EXTT6=
EXTT7=
EXTT8=
EXTT9=
EXTT10=
EXTT11=
EXTT12=
EXTT13=
EXTT14=
EXTT15=
EXTT16=
EXTT17=
EXTT18=
EXTT19=
EXTT20=
EXTT21=
EXTT22=
EXTT23=
EXTT24=
EXTT25=
EXTT26=
EXTT27=
PLAYORDER=
